<?xml version="1.0" encoding="utf-8"?> <svg version="1.1" id="Layer_1" xmlns="http://www.w3.org/2000/svg" xmlns:xlink="http://www.w3.org/1999/xlink" x="0px" y="0px" viewBox="0 0 840 3764" style="enable-background:new 0 0 840 3764;" xml:space="preserve"> <path class="st0" d="M820.5,3763.5c-0.3-22.1-18.3-40-40.5-40s-40.2,17.9-40.5,40h-39c-0.3-22.1-18.3-40-40.5-40 s-40.2,17.9-40.5,40h-39c-0.3-22.1-18.3-40-40.5-40s-40.2,17.9-40.5,40h-39c-0.3-22.1-18.3-40-40.5-40c-22.2,0-40.2,17.9-40.5,40 h-39c-0.3-22.1-18.3-40-40.5-40s-40.2,17.9-40.5,40h-39c-0.3-22.1-18.3-40-40.5-40s-40.2,17.9-40.5,40h-39 c-0.3-22.1-18.3-40-40.5-40s-40.2,17.9-40.5,40h-19V0.5h839v3763H820.5z"/> </svg>